<?xml version="1.0" encoding="UTF-8" standalone="no"?>
<svg
   xmlns:dc="http://purl.org/dc/elements/1.1/"
   xmlns:cc="http://creativecommons.org/ns#"
   xmlns:rdf="http://www.w3.org/1999/02/22-rdf-syntax-ns#"
   xmlns:svg="http://www.w3.org/2000/svg"
   xmlns="http://www.w3.org/2000/svg"
   xmlns:sodipodi="http://sodipodi.sourceforge.net/DTD/sodipodi-0.dtd"
   xmlns:inkscape="http://www.inkscape.org/namespaces/inkscape"
   width="110.48"
   height="26.440001"
   version="1.1"
   id="svg6"
   sodipodi:docname="yandex-home.svg"
   inkscape:version="0.92.2 2405546, 2018-03-11">
  <metadata
     id="metadata12">
    <rdf:RDF>
      <cc:Work
         rdf:about="">
        <dc:format>image/svg+xml</dc:format>
        <dc:type
           rdf:resource="http://purl.org/dc/dcmitype/StillImage" />
        <dc:title></dc:title>
      </cc:Work>
    </rdf:RDF>
  </metadata>
  <defs
     id="defs10" />
  <sodipodi:namedview
     pagecolor="#ffffff"
     bordercolor="#666666"
     borderopacity="1"
     objecttolerance="10"
     gridtolerance="10"
     guidetolerance="10"
     inkscape:pageopacity="0"
     inkscape:pageshadow="2"
     inkscape:window-width="1920"
     inkscape:window-height="1019"
     id="namedview8"
     showgrid="false"
     inkscape:zoom="3.4991672"
     inkscape:cx="26.032208"
     inkscape:cy="10.719999"
     inkscape:window-x="0"
     inkscape:window-y="0"
     inkscape:window-maximized="1"
     inkscape:current-layer="svg6"
     fit-margin-top="0"
     fit-margin-left="0"
     fit-margin-right="0"
     fit-margin-bottom="0" />
  <path
     d="m 8.72,13.98 v 8.68 h 2.44 V 0 H 7.52 c -3.59,0 -6.6,2.38 -6.6,7.13 0,3.39 1.33,5.23 3.33,6.25 L 0,22.66 h 2.83 l 3.86,-8.68 z m 0,-2.03 H 7.42 C 5.3,11.95 3.55,10.78 3.55,7.13 3.55,3.36 5.46,2.06 7.42,2.06 h 1.3 z"
     id="path2"
     inkscape:connector-curvature="0"
     style="fill:#ff0000" />
  <path
     d="M 35.63,20.64 H 34.37 V 6.69 h -7.42 v 1.36 c 0,4.25 -0.16,9.19 -1.62,12.59 h -0.98 v 5.16 h 2.22 v -3.14 h 6.85 v 3.14 h 2.21 z m 10.75,0.95 -0.57,-1.9 c -0.63,0.44 -1.74,1.07 -3.14,1.07 -1.96,0 -2.98,-1.9 -2.98,-5.51 h 6.66 v -1.37 c 0,-5.42 -1.74,-7.41 -4.41,-7.41 -3.39,0 -4.82,3.74 -4.82,8.87 0,4.92 2.03,7.55 5.33,7.55 1.59,0 2.92,-0.51 3.93,-1.3 z M 20.48,6.69 v 6.78 H 16.8 V 6.69 H 14.33 V 22.66 H 16.8 V 15.5 h 3.68 v 7.16 h 2.44 V 6.69 Z m 35.09,15.97 h 2.7 L 53.74,14.2 57.7,6.69 h -2.51 l -3.83,7.38 V 6.69 h -2.47 v 15.97 h 2.47 v -7.95 z m 8.5,0.23 c 1.46,0 2.47,-0.48 3.33,-1.21 l -0.57,-1.84 c -0.57,0.51 -1.49,0.99 -2.7,0.99 -1.99,0 -2.95,-2.29 -2.95,-6.28 0,-4.03 1.27,-6.02 3.05,-6.02 1.01,0 1.96,0.54 2.63,1.11 l 0.35,-2.35 c -0.7,-0.44 -1.52,-0.82 -2.95,-0.82 -3.74,0 -5.67,3.2 -5.67,8.21 0,5.45 2.06,8.21 5.48,8.21 z M 31.93,20.64 h -4.25 c 1.33,-3.4 1.49,-8.31 1.49,-11.67 V 8.69 h 2.76 z M 41.94,8.5 c 1.43,0 1.87,1.99 1.87,4.72 h -4.09 c 0.16,-2.85 0.7,-4.72 2.22,-4.72 z m 41.05,12.87 h -7.06 c 0.85,-1.05 1.36,-3.3 1.64,-6.69 0.26,-3.27 0.42,-7.64 0.51,-13.38 h 4.91 z m 1.91,5.07 h 1.23 V 21.37 H 84.58 V 0 h -7.93 c -0.09,6.31 -0.19,11.32 -0.5,14.68 -0.32,3.23 -0.86,5.77 -1.97,6.69 h -0.66 v 5.07 h 1.23 l 0.22,-3.78 h 9.7 z m 7.7,-3.46 c 2.76,0 4.88,-3.1 4.88,-8.4 0,-5.48 -2.12,-8.21 -4.88,-8.21 -2.76,0 -4.88,3.08 -4.88,8.4 0,5.45 2.12,8.21 4.88,8.21 z m 0,-1.2 c -1.87,0 -3.39,-2.13 -3.39,-7.1 0,-4.85 1.52,-7.07 3.39,-7.07 1.87,0 3.39,2.06 3.39,7.07 0,4.82 -1.52,7.1 -3.39,7.1 z m 12.05,-1.02 h 1.23 l 2.66,-9.38 c 0.23,-0.76 0.35,-1.49 0.51,-2.38 h 0.13 c -0.06,0.89 -0.13,1.75 -0.13,2.82 v 10.84 h 1.43 V 6.69 h -1.71 l -2.86,9.76 c -0.31,1.14 -0.44,1.87 -0.54,2.7 h -0.12 c -0.1,-0.83 -0.19,-1.56 -0.51,-2.7 l -2.79,-9.76 h -1.74 v 15.97 h 1.27 V 11.82 c 0,-1.14 -0.1,-1.93 -0.16,-2.79 h 0.12 c 0.19,0.8 0.29,1.49 0.54,2.35 z"
     id="path4"
     inkscape:connector-curvature="0" />
</svg>
